<?xml version="1.0" encoding="iso-8859-1"?>
<!-- Uploaded to: SVG Repo, www.svgrepo.com, Generator: SVG Repo Mixer Tools -->
<svg version="1.1" id="Layer_1" xmlns="http://www.w3.org/2000/svg" xmlns:xlink="http://www.w3.org/1999/xlink" 
	 viewBox="0 0 511.999 511.999" xml:space="preserve">
<g>
	<path style="fill:#E6773D;" d="M375.293,55.403c-5.181-0.562-9.795,3.161-10.359,8.317c-2.896,26.496-15.937,50.279-36.72,66.965
		c-20.783,16.686-46.817,24.287-73.318,21.385h-88.686c-54.693,5.983-104.058-33.655-110.039-88.35
		c-0.564-5.156-5.203-8.867-10.359-8.317c-5.158,0.564-8.881,5.201-8.317,10.359c6.628,60.637,58.125,105.695,117.781,105.693
		l110.688,0.009c26.872,0,52.754-9.063,74.009-26.13c24.697-19.829,40.193-48.088,43.635-79.571
		C384.172,60.604,380.449,55.966,375.293,55.403z"/>
	<path style="fill:#E6773D;" d="M191.892,489.759l-10.181-193.916l-18.76,0.986l9.805,186.748l0.358,0.115l-27.235,9.989
		c-4.927,1.624-7.604,6.936-5.979,11.863c1.624,4.928,6.936,7.602,11.863,5.979l33.677-12.352
		C189.553,497.816,192.09,493.882,191.892,489.759z"/>
	<path style="fill:#E6773D;" d="M229.199,489.759l10.181-193.916l18.76,0.986l-9.805,186.748l-0.358,0.115l27.235,9.989
		c4.927,1.624,7.604,6.936,5.979,11.863c-1.624,4.928-6.936,7.602-11.863,5.979l-33.677-12.352
		C231.536,497.816,229.001,493.882,229.199,489.759z"/>
</g>
<path style="fill:#ADEBEB;" d="M242.177,140.31h-63.248c-11.603,0-21.095,9.492-21.095,21.095v122.349l52.719,27.67l52.719-27.67
	V161.405C263.272,149.802,253.779,140.31,242.177,140.31z"/>
<g>
	<rect x="183.582" y="140.31" style="fill:#76DEDD;" width="18.787" height="155.966"/>
	<rect x="218.738" y="140.31" style="fill:#76DEDD;" width="18.787" height="155.966"/>
</g>
<path style="fill:#FFD089;" d="M157.834,283.755c0,29.115,23.603,52.719,52.719,52.719s52.719-23.603,52.719-52.719H157.834z"/>
<path style="fill:#E6773D;" d="M156.22,54.346c28.761,0,63.488-15.98,80.731-47.501c16.657,9.281,27.937,27.069,27.937,47.501
	c0,30.015-24.329,54.324-54.324,54.324C180.548,108.669,156.22,84.36,156.22,54.346z"/>
<path style="fill:#FFD089;" d="M210.563,0c9.577,0,18.572,2.49,26.386,6.845c-17.242,31.521-51.97,47.5-80.731,47.501
	C156.22,24.33,180.548,0,210.563,0z"/>
<path style="fill:#FF5700;" d="M393.058,0.991l-9.393,12.524l-9.393-12.524c-60.509,12.978-81.502,151.322-81.502,249.686
	s20.992,236.709,81.502,249.687l9.393-12.524l9.393,12.524c60.51-12.976,81.502-151.32,81.502-249.686S453.568,13.968,393.058,0.991
	z"/>
<path style="fill:#FFFFFF;" d="M374.271,0.992v499.373c3.032,0.651,6.161,0.992,9.393,0.992c3.233,0,6.361-0.341,9.393-0.991V0.991
	C390.027,0.341,386.897,0,383.664,0C380.433,0,377.303,0.341,374.271,0.992z"/>
</svg>